<svg version="1.1" xmlns="http://www.w3.org/2000/svg" xmlns:xlink="http://www.w3.org/1999/xlink" width="641" height="388" viewBox="0,0,641,388"><g transform="translate(0.5,14)"><g data-paper-data="{&quot;isPaintingLayer&quot;:true}" fill-rule="nonzero" stroke-linecap="butt" stroke-linejoin="miter" stroke-miterlimit="10" stroke-dasharray="" stroke-dashoffset="0" style="mix-blend-mode: normal"><path d="M0,373.5v-387h640v387z" fill="#000000" stroke="#000000" stroke-width="1"/><text transform="translate(5.5,31.75) scale(0.69502,0.69502)" font-size="40" xml:space="preserve" fill="#ffffff" fill-rule="nonzero" stroke="none" stroke-width="1" stroke-linecap="butt" stroke-linejoin="miter" stroke-miterlimit="10" stroke-dasharray="" stroke-dashoffset="0" font-family="Serif" font-weight="normal" text-anchor="start" style="mix-blend-mode: normal"><tspan x="0" dy="0">Click what item you want to use</tspan></text><path d="M453.25,17.50051c-0.00051,0.75 -0.75051,0.74949 -0.75051,0.74949l-0.00806,-0.00001c-1.67104,-0.00113 -3.49313,0.37911 -4.86763,-0.8917c-0.3449,-0.31888 -0.24267,-0.9813 -0.61473,-1.26803c-0.90982,-0.70114 -3.07158,-0.69354 -4.09568,-1.15652c-1.3155,-0.59472 -0.99843,-1.35759 -2.3166,-1.76869c-0.49889,-0.15559 -1.08439,0.0797 -1.56222,-0.1319c-0.71507,-0.31666 -1.42219,-1.5774 -2.26952,-1.81987c-0.50285,-0.1439 -1.08843,0.1708 -1.56869,-0.03638c-1.38943,-0.59938 -1.00272,-1.45612 -2.24758,-2.04781c-2.54972,-1.21191 -5.51803,-1.84275 -8.18596,-2.82658c-2.70032,0.10852 -1.36796,4.71803 -1.60503,6.70291c-0.12066,1.01022 -0.70904,1.91455 -0.92401,2.90898c-0.37649,1.74167 0.01622,4.05524 0.01622,5.84487c0,4.50007 0.00051,9.00015 -0.00081,13.50022c-0.00139,4.70012 -0.26914,8.93718 -1.28292,13.53696c-0.17757,0.80566 -1.42418,4.46137 -0.54878,5.15324c0.71594,0.56585 1.86663,-0.19345 2.73641,0.08265c2.77656,0.88138 5.53302,0.71655 8.57048,0.72066c2.29298,0.03118 3.84735,0.50739 5.98093,1.01647c1.86177,0.44422 4.05603,-0.32397 5.95767,0.00383c0.98473,0.16974 1.8453,0.82041 2.83053,0.98723c5.11561,0.86619 11.17357,-0.01057 16.3748,-0.01049c3.90436,0.00005 8.26706,-0.52556 12.12282,0.12378c0.98201,0.16538 1.86888,0.73579 2.85353,0.88461c5.3962,0.8156 11.27137,-1.11703 16.54508,0.56564c4.14562,1.37413 8.98574,-0.09846 13.29107,0.45381c2.47365,0.31731 4.8031,1.61986 7.24667,1.98037c3.49012,0.51491 7.03898,-0.39463 10.52483,0.44653c4.31846,1.05474 8.75326,1.99536 13.13739,2.56015c2.46586,0.31767 5.05568,-0.25838 7.52219,0.14063c3.52375,0.57004 6.5761,0.84056 10.22039,0.77795c3.56516,-0.27748 6.72397,-1.51091 10.21721,-1.9283c4.36297,-0.52132 8.76209,-0.09885 12.7351,-2.17522c1.19609,-0.6251 0.46572,-5.47749 0.46654,-6.62616c0.00264,-1.31108 -0.35482,-3.53283 0.08388,-4.76116c0.16744,-0.46884 0.78194,-0.67918 0.96006,-1.14406c0.52613,-1.37311 -0.04504,-4.24495 -0.04504,-5.74402c0,-3.91688 0.35145,-8.02378 -0.03483,-11.92154c-0.24043,-2.42605 -1.91525,-4.39072 -2.15074,-6.77741c-2.40423,-1.98262 -6.05143,-2.68563 -8.9662,-3.82562c-2.22017,-0.86832 -4.36977,-2.74288 -6.48846,-3.57906c-0.95112,-0.37538 -3.19656,0.04905 -4.23323,0.04905c-2.99809,0 -5.99624,-0.00579 -8.99431,0.0068c-2.63549,0.02882 -4.69805,0.39531 -7.15165,0.97227c-3.19807,0.75202 -7.35701,-0.0175 -10.65646,0.06825c-2.09717,0.0545 -3.75475,0.53733 -5.72682,0.93704c-2.33603,0.47348 -5.26153,0.01438 -7.6508,0.01956c-5.58109,0.01195 -10.74579,1.33488 -16.22251,1.99076c-4.87215,0.58348 -10.17769,0.00532 -15.08918,0.00532c-7.77478,0 -16.17608,-0.84056 -23.63562,0.98671c-2.51694,0.61654 -4.90269,-0.06835 -7.4043,0.97245c-4.56418,-0.05185 -9.04613,-1.09799 -13.48671,-1.9727c-4.07973,-0.80362 -9.18536,0.01353 -13.35817,0.01353c0,0 -0.75,0 -0.75,-0.75c0,-0.75 0.75,-0.75 0.75,-0.75c4.29627,0 9.42907,-0.78157 13.64183,0.01353c4.27956,0.80771 8.53693,1.82582 12.92013,1.97255c2.46624,-1.06442 4.86585,-0.32315 7.32266,-0.9544c7.54275,-1.93803 16.12913,-1.03169 24.00019,-1.03169c4.84992,0 10.10094,0.58134 14.91082,0.00532c5.53589,-0.66297 10.75407,-1.98899 16.39761,-2.0014c2.26596,-0.00492 5.14326,0.48193 7.34919,0.01174c2.04634,-0.43618 3.81979,-0.91055 5.99242,-0.96783c3.14804,-0.083 7.31296,0.73064 10.3429,-0.02668c2.55733,-0.63919 4.75594,-0.98436 7.49312,-1.01431c3.00185,-0.01262 6.00379,-0.00684 9.00566,-0.00684c1.27032,0 3.58999,-0.38684 4.76677,0.04905c2.13297,0.79006 4.29832,2.72359 6.50096,3.58388c3.31233,1.29371 7.12523,2.06736 9.74976,4.52832c0.35908,2.56136 2.02534,4.6965 2.31296,7.31532c0.43197,3.93306 0.04301,8.12146 0.04302,12.07801c0,1.75174 0.5253,4.61084 -0.04504,6.25598c-0.16448,0.47446 -0.78102,0.68967 -0.96482,1.15699c-0.38844,0.98761 0.0131,3.17212 0.01096,4.23831c-0.00153,2.15083 0.8795,6.45265 -1.16563,7.89241c-0.45014,0.31689 -1.11416,0.07286 -1.63011,0.2648c-1.78472,0.66394 -3.7204,1.69893 -5.67695,2.07172c-1.95931,0.37332 -4.07885,-0.17583 -6.05098,0.05981c-3.51998,0.42059 -6.72443,1.65868 -10.32406,1.93721c-3.7403,0.06595 -6.9063,-0.20914 -10.53105,-0.79551c-2.44609,-0.3957 -5.02412,0.18197 -7.4743,-0.13367c-4.43974,-0.57195 -8.92928,-1.52279 -13.30163,-2.59068c-3.41949,-0.84636 -6.94956,0.0875 -10.38786,-0.41976c-2.43749,-0.35961 -4.75639,-1.66066 -7.21859,-1.9765c-4.44527,-0.57022 -9.24985,0.85609 -13.56269,-0.5147c-4.35409,-1.4365 -10.12124,-0.48861 -14.69469,-0.50099c-1.7175,-0.00465 -2.8542,-0.62144 -4.49055,-0.89702c-3.76822,-0.6346 -8.05684,-0.1029 -11.87374,-0.10295c-5.2906,-0.00007 -11.41826,0.87109 -16.6252,-0.01056c-0.98671,-0.16707 -1.84885,-0.81784 -2.83502,-0.988c-1.94258,-0.33518 -4.11695,0.41635 -6.04227,-0.02094c-2.06321,-0.46861 -3.43158,-0.94734 -5.65262,-0.97758c-3.1869,-0.00425 -6.08849,0.1826 -9.02257,-0.79396c-0.63352,-0.21086 -2.83372,-0.00604 -3.2447,-0.3665c-1.17987,-1.03485 -0.57041,-3.93722 -0.2847,-5.16832c1.16059,-5.00085 1.58648,-9.54059 1.58799,-14.66514c0.00133,-4.49993 0.00081,-8.99985 0.00081,-13.49978c0,-1.90964 -0.37059,-4.28985 0.01622,-6.15513c0.19725,-0.9512 0.79365,-1.80594 0.90154,-2.77136c0.38311,-3.42818 -1.28238,-7.48271 3.28327,-8.0184c2.80835,0.97011 6.01173,1.6518 8.65499,2.96638c0.88211,0.4387 1.24982,1.64855 2.16591,2.01098c0.44364,0.17551 0.97713,-0.15938 1.43122,-0.01304c0.97434,0.31402 1.48714,1.47852 2.42934,1.87878c0.43949,0.1867 0.97808,-0.07196 1.43016,0.08176c0.96701,0.3288 1.52637,1.41421 2.46169,1.82457c1.17451,0.51531 3.31056,0.52593 4.3897,1.3302c0.42542,0.31706 0.40101,1.00919 0.76343,1.39668c0.8269,0.88409 2.78865,0.45862 3.81499,0.45932l0.00806,0.00001c0,0 0.75,0.00051 0.74949,0.75051z" fill="#ff3434" stroke="none" stroke-width="0.5"/><text transform="translate(456.5,39.5) scale(0.5,0.5)" font-size="40" xml:space="preserve" fill="#ff3434" fill-rule="nonzero" stroke="none" stroke-width="1" stroke-linecap="butt" stroke-linejoin="miter" stroke-miterlimit="10" stroke-dasharray="" stroke-dashoffset="0" font-family="Serif" font-weight="normal" text-anchor="start" style="mix-blend-mode: normal"><tspan x="0" dy="0">close</tspan></text></g></g></svg>